<svg xmlns="http://www.w3.org/2000/svg" width="109.854" height="114.193" viewBox="0 0 109.854 114.193">
  <g id="message_1_" data-name="message (1)" transform="translate(-0.398)">
    <path id="Path_999" data-name="Path 999" d="M22.369,204.778l32.956,20.139,32.956-20.139,21.971-13.426v49.434a12.207,12.207,0,0,1-12.2,12.207H12.6A12.207,12.207,0,0,1,.4,240.786V191.352Zm0,0" transform="translate(0 -138.8)" fill="#00bfb3"/>
    <path id="Path_1000" data-name="Path 1000" d="M342.369,133.448v4L320.4,150.874V117.039l1.4.648,17.947,11.077A5.49,5.49,0,0,1,342.369,133.448Zm0,0" transform="translate(-232.117 -84.896)" fill="#00a79c"/>
    <path id="Path_1001" data-name="Path 1001" d="M146.311,32.143V65.978L113.355,86.117,80.4,65.978V8.711A8.711,8.711,0,0,1,89.107,0h33.222l.443.044V14.83a8.708,8.708,0,0,0,8.708,8.711h12.411l2.419,2.7ZM132.56,43.364a19.224,19.224,0,1,0-19.224,19.224A19.224,19.224,0,0,0,132.56,43.364Zm0,0" transform="translate(-58.029)" fill="#eff5f5"/>
    <path id="Path_1002" data-name="Path 1002" d="M234.738.166,255.81,23.657H243.4a8.708,8.708,0,0,1-8.708-8.711V.16Zm0,0" transform="translate(-169.948 -0.116)" fill="#00bfb3"/>
    <path id="Path_1003" data-name="Path 1003" d="M168.777,107.123A19.224,19.224,0,1,1,149.552,87.9,19.224,19.224,0,0,1,168.777,107.123Zm0,0" transform="translate(-94.247 -63.759)" fill="#00bfb3"/>
    <path id="Path_1004" data-name="Path 1004" d="M22.369,117.039v33.835L.4,137.448v-4a5.5,5.5,0,0,1,2.628-4.685Zm0,0" transform="translate(0 -84.896)" fill="#00a79c"/>
    <path id="Path_1005" data-name="Path 1005" d="M173.6,148.083a1.92,1.92,0,0,1-1.463-.674l-4.273-5a1.922,1.922,0,1,1,2.923-2.5l3.055,3.577,8.494-6.911a1.922,1.922,0,1,1,2.427,2.982l-9.95,8.1A1.914,1.914,0,0,1,173.6,148.083Zm0,0" transform="translate(-121.133 -98.748)" fill="#fff"/>
  </g>
</svg>
