<svg id="gear-option" xmlns="http://www.w3.org/2000/svg" width="27" height="27" viewBox="0 0 27 27">
  <g id="Group_9347" data-name="Group 9347" transform="translate(0 0)">
    <g id="Group_9346" data-name="Group 9346">
      <path id="Path_331" data-name="Path 331" d="M23.425,13.948,23.3,13.9l-.5-1.222.054-.126c1.52-3.518,1.415-3.623,1.163-3.878L21.985,6.657a.535.535,0,0,0-.354-.143c-.114,0-.459,0-3.453,1.384l-.12.055-1.235-.508-.05-.126c-1.408-3.558-1.552-3.558-1.9-3.558H12.009c-.349,0-.508,0-1.813,3.564l-.049.13-1.229.511L8.8,7.918A18.663,18.663,0,0,0,5.282,6.6a.537.537,0,0,0-.354.141L2.9,8.769c-.257.259-.364.368,1.235,3.812l.059.128-.5,1.221-.123.049C0,15.385,0,15.522,0,15.889v2.863c0,.368,0,.52,3.575,1.828l.128.046.5,1.217-.054.124c-1.52,3.52-1.423,3.615-1.164,3.877L5.01,27.866a.551.551,0,0,0,.357.143c.113,0,.458,0,3.454-1.383l.12-.057,1.236.51.048.126c1.409,3.557,1.553,3.557,1.9,3.557h2.863c.36,0,.509,0,1.815-3.567l.049-.13,1.231-.508.117.049a18.559,18.559,0,0,0,3.514,1.316.537.537,0,0,0,.356-.141l2.032-2.029c.256-.26.362-.367-1.24-3.808l-.06-.129.5-1.216.12-.048C27,19.137,27,19,27,18.632V15.77C27,15.4,27,15.251,23.425,13.948ZM13.5,21.906a4.642,4.642,0,1,1,4.638-4.643A4.647,4.647,0,0,1,13.5,21.906Z" transform="translate(0 -3.762)" fill="#25282a"/>
    </g>
  </g>
</svg>
