<svg xmlns="http://www.w3.org/2000/svg" width="170.411" height="155.763" viewBox="0 0 170.411 155.763">
  <g id="Group_12784" data-name="Group 12784" transform="translate(-875 -368.311)">
    <g id="Group_12782" data-name="Group 12782">
      <g id="data-random-squares" transform="translate(875 359.832)">
        <g id="Group_12781" data-name="Group 12781">
          <rect id="Rectangle_17407" data-name="Rectangle 17407" width="10.687" height="10.689" transform="translate(45.181 30.452)" fill="#11c0b4"/>
          <path id="Path_8758" data-name="Path 8758" d="M112.321,37.061H126.3V16.082H91.325V51.048h21Z" fill="#11c0b4"/>
          <path id="Path_8759" data-name="Path 8759" d="M116.985,41.726V78.06h18.931v17.1h34.495V41.726Z" fill="#11c0b4"/>
          <path id="Path_8760" data-name="Path 8760" d="M38.964,78.06H65.291V48.917H0V114.2H38.964Z" fill="#11c0b4"/>
          <rect id="Rectangle_17408" data-name="Rectangle 17408" width="75.405" height="75.408" transform="translate(49.739 88.834)" fill="#11c0b4"/>
        </g>
      </g>
      <path id="Path_8563" data-name="Path 8563" d="M686.209,360.2a13.654,13.654,0,0,1-3.885,1.064,6.809,6.809,0,0,0,2.977-3.721,13.612,13.612,0,0,1-4.3,1.645,6.757,6.757,0,0,0-11.706,4.621,6.625,6.625,0,0,0,.171,1.548,19.163,19.163,0,0,1-13.946-7.085,6.794,6.794,0,0,0,2.1,9.049,6.593,6.593,0,0,1-3.073-.848v.082a6.78,6.78,0,0,0,5.434,6.646,7.033,7.033,0,0,1-1.787.238,6.589,6.589,0,0,1-1.273-.126,6.794,6.794,0,0,0,6.325,4.7,13.574,13.574,0,0,1-8.409,2.9,14.57,14.57,0,0,1-1.615-.1,18.954,18.954,0,0,0,10.359,3.059c12.465,0,19.274-10.322,19.274-19.282v-.871A13.753,13.753,0,0,0,686.209,360.2Z" transform="translate(291.677 116.696)" fill="#fff"/>
      <path id="Path_8566" data-name="Path 8566" d="M281.007,676H268.688a.768.768,0,0,0-.768.768v12.323a.768.768,0,0,0,.768.768h6.144v-5.487h-1.655v-2.02h1.686v-1.494A2.631,2.631,0,0,1,277.7,678.1c.768,0,1.59.058,1.778.084v1.866h-1.271c-.868,0-1.037.411-1.037,1.018v1.286h2.07l-.269,2.02h-1.8v5.484h3.84a.768.768,0,0,0,.768-.768V676.768A.768.768,0,0,0,281.007,676Z" transform="translate(673.905 -307.689)" fill="#11c0b4"/>
      <path id="Polygon_2" data-name="Polygon 2" d="M11,0,22,15H0Z" transform="translate(1030 415) rotate(90)" fill="#fff"/>
      <path id="Path_8679" data-name="Path 8679" d="M540.91,260a11.991,11.991,0,0,0-4.819,23.018,10.691,10.691,0,0,1,.206-2.758c.234-.976,1.547-6.549,1.547-6.549a4.568,4.568,0,0,1-.388-1.9c0-1.782,1.034-3.112,2.318-3.112a1.609,1.609,0,0,1,1.622,1.8,25.886,25.886,0,0,1-1.062,4.26,1.856,1.856,0,0,0,1.9,2.313c2.284,0,3.809-2.924,3.809-6.39,0-2.632-1.776-4.6-5-4.6a5.71,5.71,0,0,0-5.916,5.75,3.455,3.455,0,0,0,.794,2.358.571.571,0,0,1,.171.668c-.057.223-.188.754-.246.965a.417.417,0,0,1-.605.3c-1.679-.685-2.461-2.524-2.461-4.568,0-3.426,2.855-7.5,8.565-7.5,4.568,0,7.606,3.318,7.606,6.881,0,4.711-2.621,8.234-6.487,8.234a3.426,3.426,0,0,1-2.929-1.5s-.7,2.764-.851,3.3a9.9,9.9,0,0,1-1.2,2.575,12.167,12.167,0,0,0,3.426.491,12.026,12.026,0,1,0,0-24.051Z" transform="translate(364.799 165.616)" fill="#fff"/>
    </g>
    <g id="Group_12783" data-name="Group 12783" transform="translate(-5 53)">
      <path id="Path_8567" data-name="Path 8567" d="M566.792,445.156a2.9,2.9,0,0,1,2.893,2.893v5.779a2.9,2.9,0,0,1-2.893,2.893h-5.779a2.905,2.905,0,0,1-2.046-.848,2.87,2.87,0,0,1-.851-2.046v-5.779a2.9,2.9,0,0,1,2.9-2.893h5.779m0-1.156h-5.779a4.064,4.064,0,0,0-4.053,4.053v5.779a4.064,4.064,0,0,0,4.053,4.053h5.779a4.064,4.064,0,0,0,4.053-4.037v-5.779A4.068,4.068,0,0,0,566.792,444Z" transform="translate(424.885 -111.615)" fill="#fff"/>
      <path id="Path_8568" data-name="Path 8568" d="M573.216,451.751a.863.863,0,1,1,.614-.253A.871.871,0,0,1,573.216,451.751Zm-3.748.566a2.312,2.312,0,1,1-2.312,2.311,2.311,2.311,0,0,1,2.312-2.311m0-1.156a3.467,3.467,0,1,0,3.467,3.467A3.467,3.467,0,0,0,569.467,451.162Z" transform="translate(419.327 -115.309)" fill="#fff"/>
    </g>
    <path id="Path_8683" data-name="Path 8683" d="M8.126,1.766,2.5.034a.576.576,0,0,0-.738.348L.023,6.024a.621.621,0,0,0,.4.755L6.049,8.51A.589.589,0,0,0,6.768,8.1L8.5,2.457a.541.541,0,0,0-.378-.691ZM2.281,6.122l-.966-.3.924-3,.966.3Zm.615-3.6-.007,0a.549.549,0,1,1,.007,0ZM5.813,7.209l-.966-.3.505-1.643c.121-.394.063-.706-.286-.813a.553.553,0,0,0-.605.2.681.681,0,0,0-.106.227L3.827,6.6l-.966-.3.924-3,.966.3-.129.418a1.024,1.024,0,0,1,1.022-.22c.634.2.985.761.708,1.662Z" transform="translate(922.362 392.74) rotate(-17)" fill="#fff"/>
  </g>
</svg>
