<svg xmlns="http://www.w3.org/2000/svg" width="169.135" height="183.945" viewBox="0 0 169.135 183.945">
  <g id="Group_12785" data-name="Group 12785" transform="translate(-875 -320)">
    <g id="visualization-of-data" transform="translate(869.34 320)">
      <g id="Group_12780" data-name="Group 12780" transform="translate(5.66)">
        <path id="Path_8749" data-name="Path 8749" d="M42.577,68.774H55.388a5.071,5.071,0,0,0,5.05-5.043V50.917a5.07,5.07,0,0,0-5.05-5.043H42.577a5.049,5.049,0,0,0-5.04,5.043V63.731A5.056,5.056,0,0,0,42.577,68.774Z" transform="translate(4.171 14.148)" fill="#11c0b4"/>
        <path id="Path_8750" data-name="Path 8750" d="M73.043,58.467H88.492A6.084,6.084,0,0,0,94.563,52.4V36.951a6.079,6.079,0,0,0-6.071-6.067H73.043a6.084,6.084,0,0,0-6.071,6.067V52.4A6.091,6.091,0,0,0,73.043,58.467Z" transform="translate(13.25 9.525)" fill="#11c0b4"/>
        <path id="Path_8751" data-name="Path 8751" d="M85.46,91.605H70.008a6.086,6.086,0,0,0-6.071,6.072v15.449a6.094,6.094,0,0,0,6.071,6.063H85.46a6.1,6.1,0,0,0,6.071-6.063V97.677A6.1,6.1,0,0,0,85.46,91.605Z" transform="translate(12.314 28.253)" fill="#11c0b4"/>
        <path id="Path_8752" data-name="Path 8752" d="M108.7,87.452V68.745a7.368,7.368,0,0,0-7.345-7.357H82.643a7.38,7.38,0,0,0-7.353,7.357V87.452a7.382,7.382,0,0,0,7.353,7.355H101.35A7.374,7.374,0,0,0,108.7,87.452Z" transform="translate(15.815 18.933)" fill="#11c0b4"/>
        <path id="Path_8753" data-name="Path 8753" d="M98.145,23.67h8.7a3.442,3.442,0,0,0,3.425-3.418v-8.7a3.437,3.437,0,0,0-3.425-3.418h-8.7a3.44,3.44,0,0,0-3.418,3.418v8.7A3.44,3.44,0,0,0,98.145,23.67Z" transform="translate(21.81 2.51)" fill="#11c0b4"/>
        <path id="Path_8754" data-name="Path 8754" d="M123.979,70.284h-8.7a3.431,3.431,0,0,0-3.418,3.427v8.7a3.434,3.434,0,0,0,3.418,3.427h8.7a3.423,3.423,0,0,0,3.41-3.427v-8.7A3.425,3.425,0,0,0,123.979,70.284Z" transform="translate(27.095 21.677)" fill="#11c0b4"/>
        <path id="Path_8755" data-name="Path 8755" d="M85.591,101.438a2.91,2.91,0,0,0,2.888-2.884V91.2a2.906,2.906,0,0,0-2.888-2.892H78.23c-.144,0-.219.139-.382.167V27.941L21.383,0H5.66V183.945H21.383l56.464-69.856v-12.8c.164.016.239.16.382.16H85.59v-.016ZM70.864,111.6l-42.5,52.568V11.233l42.5,21.034Z" transform="translate(-5.66)" fill="#11c0b4"/>
        <path id="Path_8756" data-name="Path 8756" d="M109.2,91.605h-7.361A2.907,2.907,0,0,0,98.958,94.5v7.336a2.9,2.9,0,0,0,2.885,2.9h7.344a2.909,2.909,0,0,0,2.893-2.9V94.5A2.894,2.894,0,0,0,109.2,91.605Z" transform="translate(23.115 28.253)" fill="#11c0b4"/>
        <path id="Path_8757" data-name="Path 8757" d="M135.62,27.143H110.531a9.885,9.885,0,0,0-9.855,9.864v25.08a9.894,9.894,0,0,0,9.855,9.864H135.62a9.9,9.9,0,0,0,9.871-9.864V37.006A9.893,9.893,0,0,0,135.62,27.143Z" transform="translate(23.645 8.371)" fill="#11c0b4"/>
      </g>
    </g>
    <path id="Path_8563" data-name="Path 8563" d="M666.753,358.332a5.6,5.6,0,0,1-1.594.437,2.793,2.793,0,0,0,1.221-1.526,5.584,5.584,0,0,1-1.765.675,2.772,2.772,0,0,0-4.8,1.9,2.712,2.712,0,0,0,.07.635,7.861,7.861,0,0,1-5.721-2.906,2.787,2.787,0,0,0,.861,3.712,2.705,2.705,0,0,1-1.261-.348v.034a2.781,2.781,0,0,0,2.229,2.726,2.884,2.884,0,0,1-.733.1,2.7,2.7,0,0,1-.522-.052,2.787,2.787,0,0,0,2.595,1.929,5.568,5.568,0,0,1-3.45,1.191,5.985,5.985,0,0,1-.662-.04,7.888,7.888,0,0,0,12.156-6.655v-.357A5.642,5.642,0,0,0,666.753,358.332Z" transform="translate(309.677 12.696)" fill="#fff"/>
    <path id="Polygon_2" data-name="Polygon 2" d="M11,0,22,15H0Z" transform="translate(1032 367) rotate(90)" fill="#fff"/>
    <g id="Group_12783" data-name="Group 12783" transform="translate(-6 77)">
      <path id="Path_8567" data-name="Path 8567" d="M566.792,445.156a2.9,2.9,0,0,1,2.893,2.893v5.779a2.9,2.9,0,0,1-2.893,2.893h-5.779a2.905,2.905,0,0,1-2.046-.848,2.87,2.87,0,0,1-.851-2.046v-5.779a2.9,2.9,0,0,1,2.9-2.893h5.779m0-1.156h-5.779a4.064,4.064,0,0,0-4.053,4.053v5.779a4.064,4.064,0,0,0,4.053,4.053h5.779a4.064,4.064,0,0,0,4.053-4.037v-5.779A4.068,4.068,0,0,0,566.792,444Z" transform="translate(424.885 -111.615)" fill="#fff"/>
      <path id="Path_8568" data-name="Path 8568" d="M573.216,451.751a.863.863,0,1,1,.614-.253A.871.871,0,0,1,573.216,451.751Zm-3.748.566a2.312,2.312,0,1,1-2.312,2.311,2.311,2.311,0,0,1,2.312-2.311m0-1.156a3.467,3.467,0,1,0,3.467,3.467A3.467,3.467,0,0,0,569.467,451.162Z" transform="translate(419.327 -115.309)" fill="#fff"/>
    </g>
    <path id="Path_8679" data-name="Path 8679" d="M537.365,260a8.478,8.478,0,0,0-3.407,16.274,7.557,7.557,0,0,1,.145-1.95c.165-.69,1.094-4.631,1.094-4.631a3.229,3.229,0,0,1-.275-1.34c0-1.26.731-2.2,1.639-2.2a1.138,1.138,0,0,1,1.147,1.276,18.3,18.3,0,0,1-.751,3.012,1.312,1.312,0,0,0,1.34,1.635c1.615,0,2.693-2.067,2.693-4.518,0-1.861-1.256-3.25-3.533-3.25a4.037,4.037,0,0,0-4.182,4.065,2.443,2.443,0,0,0,.561,1.667.4.4,0,0,1,.121.472c-.04.157-.133.533-.174.682a.295.295,0,0,1-.428.214,3.263,3.263,0,0,1-1.74-3.23c0-2.422,2.019-5.3,6.056-5.3a5.084,5.084,0,0,1,5.378,4.865c0,3.331-1.853,5.822-4.586,5.822a2.422,2.422,0,0,1-2.071-1.058s-.5,1.954-.6,2.333a7,7,0,0,1-.852,1.821,8.6,8.6,0,0,0,2.422.347,8.5,8.5,0,1,0,0-17Z" transform="translate(427.799 185.616)" fill="#fff"/>
    <path id="Path_8683" data-name="Path 8683" d="M8.126,1.766,2.5.034a.576.576,0,0,0-.738.348L.023,6.024a.621.621,0,0,0,.4.755L6.049,8.51A.589.589,0,0,0,6.768,8.1L8.5,2.457a.541.541,0,0,0-.378-.691ZM2.281,6.122l-.966-.3.924-3,.966.3Zm.615-3.6-.007,0a.549.549,0,1,1,.007,0ZM5.813,7.209l-.966-.3.505-1.643c.121-.394.063-.706-.286-.813a.553.553,0,0,0-.605.2.681.681,0,0,0-.106.227L3.827,6.6l-.966-.3.924-3,.966.3-.129.418a1.024,1.024,0,0,1,1.022-.22c.634.2.985.761.708,1.662Z" transform="translate(994.362 335.74) rotate(-17)" fill="#fff"/>
    <path id="Path_8566" data-name="Path 8566" d="M281.007,676H268.688a.768.768,0,0,0-.768.768v12.323a.768.768,0,0,0,.768.768h6.144v-5.487h-1.655v-2.02h1.686v-1.494A2.631,2.631,0,0,1,277.7,678.1c.768,0,1.59.058,1.778.084v1.866h-1.271c-.868,0-1.037.411-1.037,1.018v1.286h2.07l-.269,2.02h-1.8v5.484h3.84a.768.768,0,0,0,.768-.768V676.768A.768.768,0,0,0,281.007,676Z" transform="translate(652.905 -291.689)" fill="#fff"/>
  </g>
</svg>
