<svg xmlns="http://www.w3.org/2000/svg" width="480.056" height="366.993" viewBox="0 0 480.056 366.993">
  <g id="Group_12363" data-name="Group 12363" transform="translate(-946.944 -336)">
    <g id="Group_12352" data-name="Group 12352" transform="translate(-11778 -1855)">
      <g id="Group_12361" data-name="Group 12361" transform="translate(12724.943 2191)">
        <g id="Group_12359" data-name="Group 12359">
          <path id="Path_8682" data-name="Path 8682" d="M840.8,477.538H427.261c-13.741-.012-24.876-8.688-24.892-19.393V316.914c.015-10.706,11.151-19.381,24.892-19.393H840.8c13.741.012,24.876,8.688,24.892,19.394v141.23C865.679,468.85,854.543,477.526,840.8,477.538Z" transform="translate(-402.369 -279.276)" fill="#e6e6e6" opacity="0.39"/>
          <g id="Rectangle_17397" data-name="Rectangle 17397" transform="translate(13.057)" fill="none" stroke="#3f3d56" stroke-width="2">
            <rect width="467" height="183" rx="14" stroke="none"/>
            <rect x="1" y="1" width="465" height="181" rx="13" fill="none"/>
          </g>
        </g>
        <g id="Group_12360" data-name="Group 12360" transform="translate(5.199 20.845)">
          <g id="undraw_Social_media_re_w12q" transform="translate(0 239.872)">
            <path id="Path_8620" data-name="Path 8620" d="M560.381,643.185a45.435,45.435,0,0,1,3.926,28.294,46.672,46.672,0,0,1-8.588,19.414c-.293.39-.591.775-.9,1.148h-2.13c.327-.373.649-.758.953-1.148a43.944,43.944,0,0,0,.8-54.292c.557-.172,1.125-.31,1.7-.43a45.89,45.89,0,0,1,4.231,7.015Z" transform="translate(-347.809 -585.952)" fill="#fff"/>
            <path id="Path_8621" data-name="Path 8621" d="M624.423,612.7a50.165,50.165,0,0,1-3.461,14.133,43.558,43.558,0,0,1-6.762,11.044,55.726,55.726,0,0,1-21.434,15.453q-.9.379-1.808.723c-1.056.413-2.124.792-3.2,1.148h-5.815c1.372-.344,2.738-.729,4.087-1.148a68.21,68.21,0,0,0,9.362-3.691,51.987,51.987,0,0,0,19.448-15.952c5.447-7.52,7.853-16.561,8.266-25.751a108.738,108.738,0,0,0-3.088-29.413,123.314,123.314,0,0,0-10.373-28.259.887.887,0,0,1,.35-1.171.767.767,0,0,1,.563-.115.657.657,0,0,1,.436.367c.568,1.108,1.125,2.216,1.659,3.335a125.155,125.155,0,0,1,9.776,29.321C624.4,592.506,625.456,602.741,624.423,612.7Z" transform="translate(-360.269 -549.113)" fill="#fff"/>
            <path id="Path_8656" data-name="Path 8656" d="M659.586,732.074a.576.576,0,0,1-.574.574H196.344a.574.574,0,1,1,0-1.148H659.012a.576.576,0,0,1,.574.574Z" transform="translate(-195.77 -626.56)" fill="#3f3d56"/>
          </g>
          <g id="Group_12352-2" data-name="Group 12352" transform="translate(105.108 117.752)">
            <path id="Path_8657" data-name="Path 8657" d="M158.085,532.357l-6.85-1.614,2.965-27.189,10.11,2.382Z" transform="translate(-107.15 -311.191)" fill="#ffb8b8"/>
            <path id="Path_8658" data-name="Path 8658" d="M342.861,723.393l-22.087-5.2.066-.279a8.832,8.832,0,0,1,10.622-6.572h0l13.49,3.178Z" transform="translate(-291.744 -495.176)" fill="#2f2e41"/>
            <path id="Path_8659" data-name="Path 8659" d="M201.963,533.988h-7.038l-3.348-27.145h10.386Z" transform="translate(-124.335 -312.592)" fill="#ffb8b8"/>
            <path id="Path_8660" data-name="Path 8660" d="M391.722,725.747H369.031v-.287a8.832,8.832,0,0,1,8.832-8.832h13.86Z" transform="translate(-312.299 -497.53)" fill="#2f2e41"/>
            <path id="Path_8661" data-name="Path 8661" d="M445.622,488.19a6.167,6.167,0,0,0-3-8.966l-20.6-52.25-11.464,6.959L434.408,483.1a6.2,6.2,0,0,0,11.215,5.085Z" transform="translate(-329.985 -374.146)" fill="#ffb8b8"/>
            <path id="Path_8662" data-name="Path 8662" d="M423.231,426.351l-13.1,4.848a2.765,2.765,0,0,1-3.666-2.023L403.6,415.551a7.679,7.679,0,1,1,14.418-5.289l6.676,12.167a2.765,2.765,0,0,1-1.465,3.922Z" transform="translate(-326.825 -364.882)" fill="#00bfb3"/>
            <path id="Path_8663" data-name="Path 8663" d="M379.53,631.289l-.1,0-9.975-.4a2.568,2.568,0,0,1-2.48-2.617l.765-55.107a.861.861,0,0,0-1.717-.1l-5.787,55.167a2.591,2.591,0,0,1-2.144,2.279l-.035.006-9.365-.736a2.583,2.583,0,0,1-2.972-2.568l.56-93.44,45.952,2.908L382.1,628.988a2.592,2.592,0,0,1-2.567,2.3Z" transform="translate(-302.369 -419.638)" fill="#2f2e41"/>
            <circle id="Ellipse_1412" data-name="Ellipse 1412" cx="14.099" cy="14.099" r="14.099" transform="translate(54.662 4.365)" fill="#ffb8b8"/>
            <path id="Path_8664" data-name="Path 8664" d="M389.326,483.9q-.1,0-.2-.007l-42.469-3.107a2.583,2.583,0,0,1-2.394-2.631l1.12-53.33a24.057,24.057,0,1,1,48.012,1.6c-.743,8.219-1.333,44.126-1.5,54.935a2.58,2.58,0,0,1-2.576,2.541Z" transform="translate(-301.751 -362.751)" fill="#00bfb3"/>
            <path id="Path_8665" data-name="Path 8665" d="M282.093,391.241a6.042,6.042,0,0,1,.137.941l24.659,14.226,5.994-3.45,6.39,8.365-10.017,7.14a4.592,4.592,0,0,1-5.51-.134l-25.428-20.06a6.026,6.026,0,1,1,3.775-7.027Z" transform="translate(-270.201 -356.945)" fill="#ffb8b8"/>
            <path id="Path_8666" data-name="Path 8666" d="M334.666,411.534a2.58,2.58,0,0,1,1.269-1.736l11.316-6.327a7.174,7.174,0,1,1,8.8,11.334l-9.022,9.369a2.583,2.583,0,0,1-3.906-.214l-7.97-10.329a2.58,2.58,0,0,1-.486-2.1Z" transform="translate(-297.639 -363.493)" fill="#00bfb3"/>
            <path id="Path_8667" data-name="Path 8667" d="M382.617,364.57a12.842,12.842,0,0,1-10.819-6.076c-.124-.195-.8-1.191-1.589-2.345-2.208-3.242-2.726-4.014-2.77-4.127-.6-1.542-2.494-2.137-3.98-2.365-.277-.043-.558-.08-.84-.118-2.093-.28-4.256-.57-5.443-2.87-.87-1.688-2.293-8.561-1.2-10.241,1.37-2.107,4-1.423,6.546-.761a11.176,11.176,0,0,0,4.653.581c5.814-1.21,12.4-2.581,18.225.964a15.708,15.708,0,0,1,7.271,13.9c-.158,6.179-2.853,11.057-7.209,13.048l-.907.264-.51.063a12.619,12.619,0,0,1-1.427.081Z" transform="translate(-306.57 -334.945)" fill="#2f2e41"/>
          </g>
          <g id="Group_12353" data-name="Group 12353" transform="translate(288.595 119.654)">
            <path id="Path_8668" data-name="Path 8668" d="M555.8,521.546l6.32,3.1,14.955-22.9-9.326-4.572Z" transform="translate(-551.185 -310.375)" fill="#ffb8b8"/>
            <path id="Path_8669" data-name="Path 8669" d="M747.539,701.163l12.445,6.1h0a8.832,8.832,0,0,1,4.043,11.818l-.126.258-20.375-9.988Z" transform="translate(-743.525 -492.845)" fill="#2f2e41"/>
            <path id="Path_8670" data-name="Path 8670" d="M664.892,538.3h7.038l3.348-27.144H664.891Z" transform="translate(-597.655 -316.331)" fill="#ffb8b8"/>
            <path id="Path_8671" data-name="Path 8671" d="M857.531,716.94h13.86a8.832,8.832,0,0,1,8.832,8.833v.287H857.531Z" transform="translate(-792.088 -499.565)" fill="#2f2e41"/>
            <circle id="Ellipse_1413" data-name="Ellipse 1413" cx="14.099" cy="14.099" r="14.099" transform="translate(38.022 6.434)" fill="#ffb8b8"/>
            <path id="Path_8672" data-name="Path 8672" d="M814.925,630.453a2.583,2.583,0,0,1-2.578-2.47l-5.45-72.535a.861.861,0,0,0-1.624-.371L770.412,621.63a2.6,2.6,0,0,1-3.443,1.112l-9.718-4.859a2.588,2.588,0,0,1-1.161-3.453l20.8-42.152L790.67,540.7c5.318-10.475,10.966-15.874,17.265-16.5,6.462-.645,13.364,3.8,21.1,13.586l.063.08v.1l-1.148,88.606a2.571,2.571,0,0,1-2.342,2.568l-10.431,1.3Q815.051,630.453,814.925,630.453Z" transform="translate(-748.764 -417.437)" fill="#2f2e41"/>
            <path id="Path_8673" data-name="Path 8673" d="M801.359,513.251a6.167,6.167,0,0,0,1.36-9.357l2.126-56.172-10.333,1.288-.871,54.647a6.2,6.2,0,0,0,7.718,9.595Z" transform="translate(-764.118 -384.887)" fill="#ffb8b8"/>
            <path id="Path_8674" data-name="Path 8674" d="M807.671,446.263,793.8,444.686a2.765,2.765,0,0,1-2.36-3.459l3.582-13.454a7.679,7.679,0,1,1,15.255,1.779l.474,13.87a2.765,2.765,0,0,1-3.076,2.841Z" transform="translate(-763.894 -373.497)" fill="#00bfb3"/>
            <path id="Path_8675" data-name="Path 8675" d="M896.324,399.971a6.056,6.056,0,0,0-.137.941l-24.659,14.226-5.994-3.451-6.39,8.365,10.017,7.139a4.592,4.592,0,0,0,5.51-.134L900.1,407a6.026,6.026,0,1,0-3.775-7.027Z" transform="translate(-792.776 -362.566)" fill="#ffb8b8"/>
            <path id="Path_8676" data-name="Path 8676" d="M861.714,422.36l-7.97,10.329a2.583,2.583,0,0,1-3.906.214l-9.022-9.369a7.174,7.174,0,1,1,8.8-11.334l11.316,6.327a2.583,2.583,0,0,1,.784,3.832Z" transform="translate(-783.786 -369.114)" fill="#00bfb3"/>
            <path id="Path_8677" data-name="Path 8677" d="M854.368,491.973l-15.3-74.526a13.975,13.975,0,0,0-15.987-10.974l-5.1.85a13.684,13.684,0,0,0-8.886,5.544h0a19.11,19.11,0,0,0-2.855,16.251l8.445,30.226-6.268,32.382a2.294,2.294,0,0,0,2.576,2.71c3.138-.449,8.31-1.09,14.25-1.439l3.218-12.414,1.309,12.217c7.3-.2,15.219.153,21.754,1.851a2.3,2.3,0,0,0,2.845-2.678Z" transform="translate(-769.939 -367.234)" fill="#00bfb3"/>
            <path id="Path_8678" data-name="Path 8678" d="M806.123,355.655c3.624,2.48,8.382,5.03,12.083,2.388a6.735,6.735,0,0,0,2.21-7.764c-1.772-5.068-6.641-7.3-11.3-9.009-6.053-2.223-12.643-3.992-18.892-2.4s-11.771,7.642-10.643,13.991c.907,5.106,5.723,9.354,5.039,14.494-.688,5.173-6.506,7.9-11.642,8.821s-10.884,1.222-14.575,4.911c-4.709,4.706-3.533,13.118.9,18.087s11.117,7.221,17.6,8.753c8.584,2.029,17.869,3.095,26.022-.272s14.5-12.43,12.136-20.929c-1-3.59-3.348-6.624-5.619-9.577s-4.571-6.042-5.437-9.666a10.048,10.048,0,0,1,1.815-8.791,2.547,2.547,0,0,0,.341-2.977Z" transform="translate(-748.577 -338.259)" fill="#2f2e41"/>
          </g>
          <g id="Group_12354" data-name="Group 12354" transform="translate(292.519 67.664)">
            <rect id="Rectangle_17396" data-name="Rectangle 17396" width="44.556" height="44.556" fill="#fff"/>
            <path id="Path_8679" data-name="Path 8679" d="M540.91,260a11.991,11.991,0,0,0-4.819,23.018,10.691,10.691,0,0,1,.206-2.758c.234-.976,1.547-6.549,1.547-6.549a4.568,4.568,0,0,1-.388-1.9c0-1.782,1.034-3.112,2.318-3.112a1.609,1.609,0,0,1,1.622,1.8,25.886,25.886,0,0,1-1.062,4.26,1.856,1.856,0,0,0,1.9,2.313c2.284,0,3.809-2.924,3.809-6.39,0-2.632-1.776-4.6-5-4.6a5.71,5.71,0,0,0-5.916,5.75,3.455,3.455,0,0,0,.794,2.358.571.571,0,0,1,.171.668c-.057.223-.188.754-.246.965a.417.417,0,0,1-.605.3c-1.679-.685-2.461-2.524-2.461-4.568,0-3.426,2.855-7.5,8.565-7.5,4.568,0,7.606,3.318,7.606,6.881,0,4.711-2.621,8.234-6.487,8.234a3.426,3.426,0,0,1-2.929-1.5s-.7,2.764-.851,3.3a9.9,9.9,0,0,1-1.2,2.575,12.167,12.167,0,0,0,3.426.491,12.026,12.026,0,1,0,0-24.051Z" transform="translate(-518.863 -249.893)" fill="#00bfb3"/>
          </g>
          <g id="Group_12355" data-name="Group 12355" transform="translate(50.484 60.344)">
            <rect id="Rectangle_17388" data-name="Rectangle 17388" width="57.37" height="57.37" transform="translate(0 7.764)" fill="#3a3768" opacity="0.07"/>
            <rect id="Rectangle_17393" data-name="Rectangle 17393" width="57.37" height="57.37" transform="translate(11.079 0)" fill="#fff"/>
            <path id="Path_8567" data-name="Path 8567" d="M575.723,446.206a5.536,5.536,0,0,1,5.521,5.521v11.028a5.536,5.536,0,0,1-5.522,5.522H564.695a5.544,5.544,0,0,1-3.9-1.617,5.478,5.478,0,0,1-1.625-3.9V451.727a5.536,5.536,0,0,1,5.529-5.522h11.028m0-2.206H564.695a7.757,7.757,0,0,0-7.735,7.734v11.028a7.757,7.757,0,0,0,7.734,7.735h11.028a7.757,7.757,0,0,0,7.735-7.705V451.764A7.764,7.764,0,0,0,575.723,444Z" transform="translate(-530.742 -428.803)" fill="#00bfb3"/>
            <path id="Path_8568" data-name="Path 8568" d="M579.771,453.333a1.647,1.647,0,1,1,1.172-.482A1.661,1.661,0,0,1,579.771,453.333Zm-7.154,1.081a4.411,4.411,0,1,1-4.411,4.411,4.411,4.411,0,0,1,4.411-4.411m0-2.206a6.617,6.617,0,1,0,6.617,6.617A6.617,6.617,0,0,0,572.617,452.208Z" transform="translate(-533.135 -430.394)" fill="#00bfb3"/>
          </g>
          <g id="Group_12356" data-name="Group 12356" transform="translate(292.301 12)">
            <rect id="Rectangle_17392" data-name="Rectangle 17392" width="44.792" height="44.792" transform="translate(0 0)" fill="#fff"/>
            <path id="Path_8563" data-name="Path 8563" d="M678.667,359.476a10.532,10.532,0,0,1-3,.821,5.252,5.252,0,0,0,2.3-2.87,10.5,10.5,0,0,1-3.318,1.269,5.212,5.212,0,0,0-9.03,3.565,5.111,5.111,0,0,0,.132,1.194,14.782,14.782,0,0,1-10.757-5.465,5.241,5.241,0,0,0,1.619,6.98,5.086,5.086,0,0,1-2.371-.654v.063a5.229,5.229,0,0,0,4.191,5.126,5.425,5.425,0,0,1-1.379.183,5.082,5.082,0,0,1-.982-.1,5.241,5.241,0,0,0,4.879,3.628,10.47,10.47,0,0,1-6.487,2.239,11.238,11.238,0,0,1-1.246-.075,14.832,14.832,0,0,0,22.858-12.514V362.2A10.609,10.609,0,0,0,678.667,359.476Z" transform="translate(-642.767 -345.149)" fill="#00bfb3"/>
          </g>
          <g id="Group_12357" data-name="Group 12357" transform="translate(368.705 88.963)">
            <rect id="Rectangle_17394" data-name="Rectangle 17394" width="58.145" height="58.145" transform="translate(0 0)" fill="#fff"/>
            <path id="Path_8569" data-name="Path 8569" d="M1034.5,611.852a5.445,5.445,0,0,0-5.216-5.678c-3.882-.186-7.832-.253-11.87-.253h-1.259c-4.031,0-8,.067-11.87.253a5.448,5.448,0,0,0-5.172,5.693c-.179,2.5-.253,4.985-.246,7.452s.067,4.985.238,7.452a5.461,5.461,0,0,0,5.171,5.708c4.069.186,8.249.268,12.5.268s8.42-.074,12.5-.268a5.492,5.492,0,0,0,5.216-5.708c.164-2.5.246-4.985.238-7.489s-.067-4.978-.231-7.452Zm-21.111,14.359V612.455l10.149,6.87Z" transform="translate(-986.746 -590.562)" fill="#00bfb3"/>
          </g>
          <g id="Group_12358" data-name="Group 12358" transform="translate(192.299 13.068)">
            <rect id="Rectangle_17395" data-name="Rectangle 17395" width="87.672" height="99.726" transform="translate(0 0)" fill="#fff"/>
            <path id="Path_8566" data-name="Path 8566" d="M311.946,676H270.5a2.584,2.584,0,0,0-2.584,2.584v41.456a2.584,2.584,0,0,0,2.584,2.584h20.67V704.162h-5.568v-6.8h5.671v-5.025c0-6.007,4.173-9.289,9.547-9.289,2.584,0,5.348.194,5.981.284v6.278h-4.276c-2.92,0-3.488,1.382-3.488,3.423v4.328H306l-.9,6.8h-6.072V722.61h12.919a2.584,2.584,0,0,0,2.584-2.584V678.584A2.584,2.584,0,0,0,311.946,676Z" transform="translate(-247.536 -649.601)" fill="#00bfb3"/>
          </g>
        </g>
        <path id="Path_8683" data-name="Path 8683" d="M22.884,4.974,7.031.1a1.621,1.621,0,0,0-2.078.98L.065,16.965a1.749,1.749,0,0,0,1.122,2.127l15.848,4.876a1.66,1.66,0,0,0,2.025-1.159L23.948,6.921a1.524,1.524,0,0,0-1.064-1.947ZM6.425,17.242,3.7,16.405l2.6-8.461,2.721.837ZM8.157,7.105,8.138,7.1a1.547,1.547,0,1,1,.019.006ZM16.37,20.3l-2.721-.837,1.423-4.626c.341-1.108.178-1.987-.807-2.29a1.557,1.557,0,0,0-1.7.575,1.918,1.918,0,0,0-.3.639l-1.483,4.819-2.721-.837,2.6-8.461,2.721.837L13.02,11.3a2.883,2.883,0,0,1,2.877-.62c1.786.55,2.775,2.143,1.994,4.681Z" transform="translate(344.419 35.74) rotate(-17)" fill="#e4e4e4"/>
      </g>
    </g>
    <g id="Group_12362" data-name="Group 12362" transform="translate(988 16.003)">
      <ellipse id="Ellipse_1399" data-name="Ellipse 1399" cx="40.21" cy="6.8" rx="40.21" ry="6.8" transform="translate(0 671.77)" fill="#00bfb3"/>
      <path id="Path_8507" data-name="Path 8507" d="M108.6,716.46a11.63,11.63,0,0,0,3.84-5.78c.49-2.3-.49-5-2.68-5.89-2.46-.95-5.09.76-7.08,2.48s-4.28,3.69-6.89,3.32A10.47,10.47,0,0,0,99,700.78a4,4,0,0,0-.9-2c-1.36-1.46-3.84-.83-5.48.32-5.2,3.66-6.65,10.72-6.67,17.08-.53-2.3-.09-4.69-.1-7s-.66-5-2.64-6.22a8,8,0,0,0-4-.95c-2.34-.08-4.94.15-6.54,1.86-2,2.12-1.47,5.69.26,8s4.35,3.8,6.76,5.42a14.919,14.919,0,0,1,4.84,4.61,4.411,4.411,0,0,1,.36.82H99.54a40.771,40.771,0,0,0,9.06-6.26Z" transform="translate(-51.77 -49.02)" fill="#00bfb3"/>
    </g>
  </g>
</svg>
